# xmcd
#
# Track frame offsets: 
#        150
#        20736
#        35794
#        80582
#        103407
#        129935
#        157381
#
# Disc length: 2489 seconds
#
# Revision: 0
# Processed by: cddbd v1.5.2PL0 Copyright (c) Steve Scherf et al.
# Submitted via: ExactAudioCopyFreeDBPlugin 1.0
#
DISCID=6209b707
DTITLE=Paul Carrack - The Long Detour
DYEAR=2018
DGENRE=Blues
TTITLE0=Tempted
TTITLE1=You Don't Know Me
TTITLE2=Bet Your Life
TTITLE3=Love Will Keep Us Alive
TTITLE4=The Living Years
TTITLE5=How Long
TTITLE6=Over My Shoulder
EXTD=
EXTT0=
EXTT1=
EXTT2=
EXTT3=
EXTT4=
EXTT5=
EXTT6=
PLAYORDER=
